<svg width="100" height="100" viewBox="0 0 100 100" fill="none" xmlns="http://www.w3.org/2000/svg">
<path d="M50.0043 18.8708C54.7659 14.6111 60.9776 12.336 67.3641 12.5126C73.7506 12.6893 79.8271 15.3044 84.3459 19.8209C88.8599 24.3341 91.4764 30.4031 91.6593 36.7837C91.8421 43.1643 89.5774 49.3732 85.3293 54.1375L49.9959 89.5209L14.6709 54.1375C10.4178 49.3707 8.15094 43.1565 8.33566 36.7708C8.52038 30.3851 11.1427 24.3123 15.6642 19.7993C20.1858 15.2863 26.2635 12.6755 32.6495 12.5028C39.0356 12.3301 45.2455 14.6088 50.0043 18.8708ZM78.4459 25.7084C75.4349 22.7024 71.3882 20.9618 67.1351 20.8433C62.8821 20.7247 58.7448 22.2373 55.5709 25.0709L50.0084 30.0625L44.4418 25.075C41.2821 22.2496 37.1645 20.7342 32.927 20.8372C28.6895 20.9402 24.6505 22.6539 21.6319 25.6296C18.6132 28.6052 16.8417 32.6193 16.6779 36.8548C16.5141 41.0904 17.9703 45.2293 20.7501 48.4292L50.0001 77.725L79.2501 48.4334C82.0182 45.2475 83.4747 41.1302 83.3254 36.9124C83.1762 32.6946 81.4323 28.6905 78.4459 25.7084Z" fill="#8CE670"/>
</svg>
