<svg width="24" height="24" viewBox="0 0 24 24" fill="none" xmlns="http://www.w3.org/2000/svg">
<path fill-rule="evenodd" clip-rule="evenodd" d="M1.20018 13.2C0.0961799 13.2 -0.42222 11.8356 0.40338 11.1036L11.2034 1.50359C11.423 1.30857 11.7065 1.20087 12.0002 1.20087C12.2939 1.20087 12.5774 1.30857 12.797 1.50359L23.597 11.1036C24.4226 11.8356 23.9042 13.2 22.8002 13.2H21.6002V21.6C21.6002 21.9182 21.4738 22.2235 21.2487 22.4485C21.0237 22.6736 20.7184 22.8 20.4002 22.8H3.60018C3.28192 22.8 2.9767 22.6736 2.75165 22.4485C2.52661 22.2235 2.40018 21.9182 2.40018 21.6V13.2H1.20018ZM8.40018 20.4V14.4C8.40018 14.0817 8.52661 13.7765 8.75165 13.5515C8.9767 13.3264 9.28192 13.2 9.60018 13.2H14.4002C14.7184 13.2 15.0237 13.3264 15.2487 13.5515C15.4738 13.7765 15.6002 14.0817 15.6002 14.4V20.4H19.2002V12C19.2001 11.7865 19.2571 11.5769 19.3651 11.3927C19.4731 11.2086 19.6282 11.0566 19.8146 10.9524L12.0002 4.00439L4.18578 10.9524C4.37212 11.0566 4.52729 11.2086 4.63529 11.3927C4.74329 11.5769 4.80021 11.7865 4.80018 12V20.4H8.40018ZM10.8002 20.4V15.6H13.2002V20.4H10.8002Z" fill="black"/>
</svg>
