<svg width="100" height="100" viewBox="0 0 100 100" fill="none" xmlns="http://www.w3.org/2000/svg">
<path d="M55.957 41.1133C53.7012 41.1133 51.9531 42.8613 51.9531 45.0195C51.9531 47.1777 53.7012 48.9258 55.957 48.9258C58.0176 48.9258 59.7656 47.1777 59.7656 45.0195C59.7656 42.8613 58.0176 41.1133 55.957 41.1133ZM28.6133 41.1133C26.3574 41.1133 24.6094 42.8613 24.6094 45.0195C24.6094 47.1777 26.3574 48.9258 28.6133 48.9258C30.6738 48.9258 32.4219 47.1777 32.4219 45.0195C32.4219 42.8613 30.6738 41.1133 28.6133 41.1133Z" fill="black"/>
<path d="M87.3048 33.6914C82.6076 27.2461 76.0451 22.9395 68.8478 20.9961V21.0059C67.1779 19.1504 65.2931 17.4414 63.1838 15.918C47.1974 4.29688 24.756 7.8418 13.0861 23.8281C3.6818 36.8164 4.08219 54.2871 13.672 66.6992L13.7502 79.6484C13.7502 79.9609 13.799 80.2734 13.8966 80.5664C14.4142 82.2168 16.172 83.125 17.8127 82.6074L30.1759 78.7109C33.4474 79.8731 36.8263 80.5371 40.1857 80.7227L40.1369 80.7617C48.8381 87.0996 60.2443 89.0039 70.7033 85.5469L83.1154 89.5899C83.4279 89.6875 83.7502 89.7461 84.0822 89.7461C85.8107 89.7461 87.2072 88.3496 87.2072 86.6211V73.5352C95.8107 61.8555 96.0353 45.7129 87.3048 33.6914ZM31.5431 71.7773L30.3713 71.2891L20.7033 74.3164L20.6056 64.1602L19.8244 63.2813C11.5627 53.2031 11.0158 38.6816 18.7502 28.0273C28.1642 15.1172 46.2111 12.2656 59.0822 21.582C71.9923 30.9668 74.8537 48.9844 65.5275 61.8164C57.7052 72.5488 43.7013 76.5137 31.5431 71.7773ZM80.8595 70.1172L80.0783 71.0938L80.1759 81.25L70.6056 78.0274L69.4338 78.5156C63.965 80.5469 58.1349 80.7129 52.7345 79.1992L52.715 79.1895C59.9318 76.9727 66.4748 72.4805 71.1916 66.0156C78.6525 55.7324 79.8634 42.8125 75.5275 31.7969L75.5861 31.8359C77.8322 33.4473 79.8927 35.459 81.6408 37.8906C88.7306 47.6172 88.3302 60.8594 80.8595 70.1172Z" fill="black"/>
<path d="M42.2852 41.1133C40.0293 41.1133 38.2812 42.8613 38.2812 45.0195C38.2812 47.1777 40.0293 48.9258 42.2852 48.9258C44.3457 48.9258 46.0938 47.1777 46.0938 45.0195C46.0938 42.8613 44.3457 41.1133 42.2852 41.1133Z" fill="black"/>
</svg>
