<svg width="100" height="100" viewBox="0 0 100 100" fill="none" xmlns="http://www.w3.org/2000/svg">
<path d="M79.1667 12.5C81.2691 12.4993 83.294 13.2934 84.8356 14.7229C86.3772 16.1524 87.3215 18.1119 87.4792 20.2083L87.5 20.8333V79.1667C87.5007 81.2691 86.7066 83.294 85.2771 84.8356C83.8475 86.3772 81.8881 87.3215 79.7917 87.4792L79.1667 87.5H20.8333C18.7309 87.5007 16.706 86.7066 15.1644 85.2771C13.6228 83.8475 12.6785 81.8881 12.5208 79.7917L12.5 79.1667V20.8333C12.4993 18.7309 13.2934 16.706 14.7229 15.1644C16.1524 13.6228 18.1119 12.6785 20.2083 12.5208L20.8333 12.5H79.1667ZM45.8333 62.5H20.8333V79.1667H45.8333V62.5ZM79.1667 62.5H54.1667V79.1667H79.1667V62.5ZM79.1667 41.6667H54.1667V54.1667H79.1667V41.6667ZM45.8333 41.6667H20.8333V54.1667H45.8333V41.6667ZM79.1667 20.8333H54.1667V33.3333H79.1667V20.8333ZM45.8333 20.8333H20.8333V33.3333H45.8333V20.8333Z" fill="black"/>
</svg>
