<svg width="102" height="100" viewBox="0 0 102 100" fill="none" xmlns="http://www.w3.org/2000/svg">
<path fill-rule="evenodd" clip-rule="evenodd" d="M6.00018 55C1.40018 55 -0.75982 49.315 2.68018 46.265L47.6802 6.265C48.5952 5.45244 49.7764 5.00366 51.0002 5.00366C52.2239 5.00366 53.4052 5.45244 54.3202 6.265L99.3202 46.265C102.76 49.315 100.6 55 96.0002 55H91.0002V90C91.0002 91.3261 90.4734 92.5979 89.5357 93.5355C88.598 94.4732 87.3263 95 86.0002 95H16.0002C14.6741 95 13.4023 94.4732 12.4646 93.5355C11.527 92.5979 11.0002 91.3261 11.0002 90V55H6.00018ZM36.0002 85V60C36.0002 58.6739 36.527 57.4021 37.4646 56.4645C38.4023 55.5268 39.6741 55 41.0002 55H61.0002C62.3263 55 63.598 55.5268 64.5357 56.4645C65.4734 57.4021 66.0002 58.6739 66.0002 60V85H81.0002V50C81 49.1105 81.2372 48.237 81.6872 47.4697C82.1372 46.7024 82.7838 46.0691 83.5602 45.635L51.0002 16.685L18.4402 45.635C19.2166 46.0691 19.8631 46.7024 20.3131 47.4697C20.7632 48.237 21.0003 49.1105 21.0002 50V85H36.0002ZM46.0002 85V65H56.0002V85H46.0002Z" fill="#8CE670"/>
</svg>
