<svg width="315" height="70" viewBox="0 0 315 70" fill="none" xmlns="http://www.w3.org/2000/svg">
<path d="M6.426 28H2.538L6.21 10.828L10.206 10.288L6.966 25.435C7.218 25.615 7.47 25.75 7.722 25.84C7.974 25.93 8.235 25.975 8.505 25.975C9.963 25.975 11.187 24.778 12.177 22.384C13.185 19.972 13.689 17.209 13.689 14.095C13.689 12.403 13.356 11.134 12.69 10.288C12.024 9.424 11.043 8.992 9.747 8.992C7.641 8.992 5.931 9.595 4.617 10.801C3.321 11.989 2.673 13.573 2.673 15.553C2.673 15.895 2.691 16.192 2.727 16.444C2.781 16.696 2.862 16.939 2.97 17.173C3.006 17.245 3.024 17.299 3.024 17.335C3.042 17.353 3.051 17.371 3.051 17.389C2.079 17.389 1.35 17.182 0.864 16.768C0.396 16.354 0.162 15.724 0.162 14.878C0.162 13.888 0.477 12.925 1.107 11.989C1.755 11.035 2.637 10.207 3.753 9.505C4.671 8.947 5.679 8.515 6.777 8.209C7.893 7.903 9.036 7.75 10.206 7.75C12.51 7.75 14.283 8.443 15.525 9.829C16.785 11.197 17.415 13.096 17.415 15.526C17.415 16.84 17.262 18.172 16.956 19.522C16.65 20.872 16.218 22.132 15.66 23.302C14.922 24.886 14.049 26.128 13.041 27.028C12.033 27.91 10.998 28.351 9.936 28.351C9.396 28.351 8.847 28.234 8.289 28C7.749 27.748 7.2 27.388 6.642 26.92L6.426 28ZM27.8123 16.849C27.8123 18.343 27.2003 19.648 25.9763 20.764C24.7523 21.862 23.2943 22.456 21.6023 22.546C21.5843 22.852 21.5663 23.086 21.5483 23.248C21.5483 23.392 21.5483 23.518 21.5483 23.626C21.5483 24.454 21.6833 25.039 21.9533 25.381C22.2413 25.723 22.7543 25.894 23.4923 25.894C24.3383 25.894 25.1123 25.705 25.8143 25.327C26.5343 24.931 27.3533 24.211 28.2713 23.167H29.1893C28.1453 24.859 27.0113 26.119 25.7873 26.947C24.5633 27.757 23.2223 28.162 21.7643 28.162C20.3783 28.162 19.3253 27.802 18.6053 27.082C17.9033 26.362 17.5523 25.291 17.5523 23.869C17.5523 22.843 17.7143 21.754 18.0383 20.602C18.3623 19.45 18.7943 18.424 19.3343 17.524C20.0003 16.444 20.7923 15.634 21.7103 15.094C22.6463 14.536 23.6903 14.257 24.8423 14.257C25.8323 14.257 26.5703 14.473 27.0563 14.905C27.5603 15.319 27.8123 15.967 27.8123 16.849ZM25.0583 15.688C24.4463 15.688 23.8253 16.237 23.1953 17.335C22.5833 18.415 22.1243 19.72 21.8183 21.25C22.8623 21.178 23.7713 20.701 24.5453 19.819C25.3373 18.919 25.7333 17.911 25.7333 16.795C25.7333 16.417 25.6793 16.138 25.5713 15.958C25.4633 15.778 25.2923 15.688 25.0583 15.688ZM36.6356 16.795C36.3476 16.795 36.1136 16.66 35.9336 16.39C35.7536 16.102 35.6636 15.778 35.6636 15.418C35.6636 14.968 35.8076 14.617 36.0956 14.365C36.4016 14.095 36.8156 13.96 37.3376 13.96C37.8956 13.96 38.3186 14.167 38.6066 14.581C38.8946 14.995 39.0386 15.571 39.0386 16.309C39.0386 17.533 38.8766 18.82 38.5526 20.17C38.2466 21.502 37.8236 22.717 37.2836 23.815C36.5636 25.237 35.6996 26.317 34.6916 27.055C33.6836 27.793 32.5676 28.162 31.3436 28.162C30.2816 28.162 29.4626 27.892 28.8866 27.352C28.3106 26.794 28.0226 26.002 28.0226 24.976C28.0226 24.778 28.0406 24.571 28.0766 24.355C28.0946 24.121 28.1216 23.896 28.1576 23.68L30.1016 14.5H33.9896L32.0456 23.68C32.0096 23.878 31.9736 24.067 31.9376 24.247C31.9196 24.409 31.9106 24.544 31.9106 24.652C31.9106 24.94 31.9826 25.165 32.1266 25.327C32.2886 25.471 32.5226 25.543 32.8286 25.543C33.4586 25.543 34.0706 25.219 34.6646 24.571C35.2766 23.905 35.8256 22.969 36.3116 21.763C36.6716 20.899 36.9596 19.99 37.1756 19.036C37.3916 18.082 37.4996 17.245 37.4996 16.525C37.4636 16.597 37.3466 16.66 37.1486 16.714C36.9686 16.768 36.7976 16.795 36.6356 16.795ZM44.4403 21.628C44.4403 23.122 44.7013 24.202 45.2233 24.868C45.7453 25.516 46.5643 25.84 47.6803 25.84C48.7063 25.84 49.6783 25.606 50.5963 25.138C51.5323 24.652 52.3153 23.986 52.9453 23.14L53.5663 23.41C52.9723 24.94 51.9373 26.164 50.4613 27.082C49.0033 27.982 47.4733 28.432 45.8713 28.432C43.7833 28.432 42.2713 27.91 41.3353 26.866C40.4173 25.804 39.9583 24.112 39.9583 21.79C39.9583 20.296 40.1473 18.739 40.5253 17.119C40.9033 15.499 41.4253 14.05 42.0913 12.772C42.9553 11.134 43.9993 9.892 45.2233 9.046C46.4653 8.182 47.8513 7.75 49.3813 7.75C50.8213 7.75 51.9283 8.065 52.7023 8.695C53.4943 9.307 53.8903 10.198 53.8903 11.368C53.8903 12.178 53.7283 12.799 53.4043 13.231C53.0803 13.645 52.6123 13.852 52.0003 13.852C51.6943 13.852 51.4063 13.798 51.1363 13.69C50.8843 13.564 50.6593 13.384 50.4613 13.15C50.7853 12.988 51.0733 12.664 51.3253 12.178C51.5773 11.674 51.7033 11.17 51.7033 10.666C51.7033 10.144 51.5593 9.739 51.2713 9.451C50.9833 9.163 50.5783 9.019 50.0563 9.019C49.2643 9.019 48.4813 9.505 47.7073 10.477C46.9333 11.431 46.2583 12.754 45.6823 14.446C45.2863 15.598 44.9803 16.804 44.7643 18.064C44.5483 19.306 44.4403 20.494 44.4403 21.628ZM52.4882 23.842C52.4882 22.816 52.6502 21.727 52.9742 20.575C53.3162 19.423 53.7752 18.397 54.3512 17.497C55.0172 16.435 55.8182 15.634 56.7542 15.094C57.6902 14.536 58.7342 14.257 59.8862 14.257C61.0382 14.257 61.9022 14.617 62.4782 15.337C63.0542 16.057 63.3422 17.137 63.3422 18.577C63.3782 18.595 63.4142 18.613 63.4502 18.631C63.5042 18.631 63.5672 18.631 63.6392 18.631C64.1972 18.631 64.8632 18.478 65.6372 18.172C66.4112 17.866 67.1312 17.479 67.7972 17.011L68.0402 17.74C67.5362 18.28 66.8612 18.748 66.0152 19.144C65.1872 19.54 64.2692 19.819 63.2612 19.981C63.0452 22.411 62.3432 24.373 61.1552 25.867C59.9672 27.361 58.5182 28.108 56.8082 28.108C55.4042 28.108 54.3332 27.748 53.5952 27.028C52.8572 26.308 52.4882 25.246 52.4882 23.842ZM60.1022 15.904C59.2382 15.904 58.4192 16.777 57.6452 18.523C56.8892 20.269 56.5112 21.925 56.5112 23.491C56.5112 24.337 56.6012 24.913 56.7812 25.219C56.9792 25.525 57.3482 25.678 57.8882 25.678C58.5542 25.678 59.1842 25.138 59.7782 24.058C60.3902 22.978 60.8042 21.646 61.0202 20.062C60.7682 20.008 60.5792 19.891 60.4532 19.711C60.3452 19.513 60.2912 19.252 60.2912 18.928C60.2912 18.586 60.3632 18.289 60.5072 18.037C60.6512 17.785 60.8582 17.596 61.1282 17.47C61.0922 16.894 60.9932 16.489 60.8312 16.255C60.6872 16.021 60.4442 15.904 60.1022 15.904ZM71.4243 25.111C71.4243 24.787 71.4603 24.382 71.5323 23.896C71.6223 23.41 71.7933 22.636 72.0453 21.574C72.2973 20.548 72.4593 19.81 72.5313 19.36C72.6033 18.91 72.6393 18.532 72.6393 18.226C72.6393 17.776 72.5583 17.434 72.3963 17.2C72.2343 16.966 71.9913 16.849 71.6673 16.849C71.2353 16.849 70.8303 17.074 70.4523 17.524C70.0923 17.956 69.7953 18.559 69.5613 19.333L67.7253 28H63.8373L66.6993 14.5H70.5873L70.2903 15.904C70.7403 15.4 71.2263 15.022 71.7483 14.77C72.2703 14.518 72.8373 14.392 73.4493 14.392C74.4033 14.392 75.1413 14.653 75.6633 15.175C76.1853 15.697 76.4463 16.453 76.4463 17.443C76.4463 17.857 76.3923 18.352 76.2843 18.928C76.1943 19.486 76.0053 20.35 75.7173 21.52C75.4833 22.438 75.3303 23.086 75.2583 23.464C75.1863 23.842 75.1503 24.157 75.1503 24.409C75.1503 24.787 75.2403 25.075 75.4203 25.273C75.6003 25.453 75.8703 25.543 76.2303 25.543C76.6803 25.543 77.0673 25.39 77.3913 25.084C77.7153 24.778 78.0843 24.139 78.4983 23.167H79.6323C79.0563 24.841 78.3543 26.092 77.5263 26.92C76.7163 27.748 75.7443 28.162 74.6103 28.162C73.6023 28.162 72.8193 27.892 72.2613 27.352C71.7033 26.794 71.4243 26.047 71.4243 25.111Z" fill="black"/>
</svg>
