<svg width="315" height="70" viewBox="0 0 315 70" fill="none" xmlns="http://www.w3.org/2000/svg">
<path d="M7.378 32H2.914L7.13 12.284L11.718 11.664L7.998 29.055C8.28733 29.2617 8.57667 29.4167 8.866 29.52C9.15533 29.6233 9.455 29.675 9.765 29.675C11.439 29.675 12.8443 28.3007 13.981 25.552C15.1383 22.7827 15.717 19.6103 15.717 16.035C15.717 14.0923 15.3347 12.6353 14.57 11.664C13.8053 10.672 12.679 10.176 11.191 10.176C8.773 10.176 6.80967 10.8683 5.301 12.253C3.813 13.617 3.069 15.4357 3.069 17.709C3.069 18.1017 3.08967 18.4427 3.131 18.732C3.193 19.0213 3.286 19.3003 3.41 19.569C3.45133 19.6517 3.472 19.7137 3.472 19.755C3.49267 19.7757 3.503 19.7963 3.503 19.817C2.387 19.817 1.55 19.5793 0.992 19.104C0.454667 18.6287 0.186 17.9053 0.186 16.934C0.186 15.7973 0.547667 14.6917 1.271 13.617C2.015 12.5217 3.02767 11.571 4.309 10.765C5.363 10.1243 6.52033 9.62833 7.781 9.277C9.06233 8.92567 10.3747 8.75 11.718 8.75C14.3633 8.75 16.399 9.54567 17.825 11.137C19.2717 12.7077 19.995 14.888 19.995 17.678C19.995 19.1867 19.8193 20.716 19.468 22.266C19.1167 23.816 18.6207 25.2627 17.98 26.606C17.1327 28.4247 16.1303 29.8507 14.973 30.884C13.8157 31.8967 12.6273 32.403 11.408 32.403C10.788 32.403 10.1577 32.2687 9.517 32C8.897 31.7107 8.26667 31.2973 7.626 30.76L7.378 32ZM31.9327 19.197C31.9327 20.9123 31.23 22.4107 29.8247 23.692C28.4193 24.9527 26.7453 25.6347 24.8027 25.738C24.782 26.0893 24.7613 26.358 24.7407 26.544C24.7407 26.7093 24.7407 26.854 24.7407 26.978C24.7407 27.9287 24.8957 28.6003 25.2057 28.993C25.5363 29.3857 26.1253 29.582 26.9727 29.582C27.944 29.582 28.8327 29.365 29.6387 28.931C30.4653 28.4763 31.4057 27.6497 32.4597 26.451H33.5137C32.315 28.3937 31.013 29.8403 29.6077 30.791C28.2023 31.721 26.6627 32.186 24.9887 32.186C23.3973 32.186 22.1883 31.7727 21.3617 30.946C20.5557 30.1193 20.1527 28.8897 20.1527 27.257C20.1527 26.079 20.3387 24.8287 20.7107 23.506C21.0827 22.1833 21.5787 21.0053 22.1987 19.972C22.9633 18.732 23.8727 17.802 24.9267 17.182C26.0013 16.5413 27.2 16.221 28.5227 16.221C29.6593 16.221 30.5067 16.469 31.0647 16.965C31.6433 17.4403 31.9327 18.1843 31.9327 19.197ZM28.7707 17.864C28.068 17.864 27.355 18.4943 26.6317 19.755C25.929 20.995 25.402 22.4933 25.0507 24.25C26.2493 24.1673 27.293 23.6197 28.1817 22.607C29.091 21.5737 29.5457 20.4163 29.5457 19.135C29.5457 18.701 29.4837 18.3807 29.3597 18.174C29.2357 17.9673 29.0393 17.864 28.7707 17.864ZM42.0631 19.135C41.7325 19.135 41.4638 18.98 41.2571 18.67C41.0505 18.3393 40.9471 17.9673 40.9471 17.554C40.9471 17.0373 41.1125 16.6343 41.4431 16.345C41.7945 16.035 42.2698 15.88 42.8691 15.88C43.5098 15.88 43.9955 16.1177 44.3261 16.593C44.6568 17.0683 44.8221 17.7297 44.8221 18.577C44.8221 19.9823 44.6361 21.46 44.2641 23.01C43.9128 24.5393 43.4271 25.9343 42.8071 27.195C41.9805 28.8277 40.9885 30.0677 39.8311 30.915C38.6738 31.7623 37.3925 32.186 35.9871 32.186C34.7678 32.186 33.8275 31.876 33.1661 31.256C32.5048 30.6153 32.1741 29.706 32.1741 28.528C32.1741 28.3007 32.1948 28.063 32.2361 27.815C32.2568 27.5463 32.2878 27.288 32.3291 27.04L34.5611 16.5H39.0251L36.7931 27.04C36.7518 27.2673 36.7105 27.4843 36.6691 27.691C36.6485 27.877 36.6381 28.032 36.6381 28.156C36.6381 28.4867 36.7208 28.745 36.8861 28.931C37.0721 29.0963 37.3408 29.179 37.6921 29.179C38.4155 29.179 39.1181 28.807 39.8001 28.063C40.5028 27.2983 41.1331 26.2237 41.6911 24.839C42.1045 23.847 42.4351 22.8033 42.6831 21.708C42.9311 20.6127 43.0551 19.6517 43.0551 18.825C43.0138 18.9077 42.8795 18.98 42.6521 19.042C42.4455 19.104 42.2491 19.135 42.0631 19.135ZM51.0241 24.684C51.0241 26.3993 51.3237 27.6393 51.9231 28.404C52.5224 29.148 53.4627 29.52 54.7441 29.52C55.9221 29.52 57.0381 29.2513 58.0921 28.714C59.1667 28.156 60.0657 27.3913 60.7891 26.42L61.5021 26.73C60.8201 28.4867 59.6317 29.892 57.9371 30.946C56.2631 31.9793 54.5064 32.496 52.6671 32.496C50.2697 32.496 48.5337 31.8967 47.4591 30.698C46.4051 29.4787 45.8781 27.536 45.8781 24.87C45.8781 23.1547 46.0951 21.367 46.5291 19.507C46.9631 17.647 47.5624 15.9833 48.3271 14.516C49.3191 12.6353 50.5177 11.2093 51.9231 10.238C53.3491 9.246 54.9404 8.75 56.6971 8.75C58.3504 8.75 59.6214 9.11167 60.5101 9.835C61.4194 10.5377 61.8741 11.5607 61.8741 12.904C61.8741 13.834 61.6881 14.547 61.3161 15.043C60.9441 15.5183 60.4067 15.756 59.7041 15.756C59.3527 15.756 59.0221 15.694 58.7121 15.57C58.4227 15.4253 58.1644 15.2187 57.9371 14.95C58.3091 14.764 58.6397 14.392 58.9291 13.834C59.2184 13.2553 59.3631 12.6767 59.3631 12.098C59.3631 11.4987 59.1977 11.0337 58.8671 10.703C58.5364 10.3723 58.0714 10.207 57.4721 10.207C56.5627 10.207 55.6637 10.765 54.7751 11.881C53.8864 12.9763 53.1114 14.4953 52.4501 16.438C51.9954 17.7607 51.6441 19.1453 51.3961 20.592C51.1481 22.018 51.0241 23.382 51.0241 24.684ZM60.2642 27.226C60.2642 26.048 60.4502 24.7977 60.8222 23.475C61.2149 22.1523 61.7419 20.9743 62.4032 19.941C63.1679 18.7217 64.0876 17.802 65.1622 17.182C66.2369 16.5413 67.4356 16.221 68.7582 16.221C70.0809 16.221 71.0729 16.6343 71.7342 17.461C72.3956 18.2877 72.7262 19.5277 72.7262 21.181C72.7676 21.2017 72.8089 21.2223 72.8502 21.243C72.9122 21.243 72.9846 21.243 73.0672 21.243C73.7079 21.243 74.4726 21.0673 75.3612 20.716C76.2499 20.3647 77.0766 19.9203 77.8412 19.383L78.1202 20.22C77.5416 20.84 76.7666 21.3773 75.7952 21.832C74.8446 22.2867 73.7906 22.607 72.6332 22.793C72.3852 25.583 71.5792 27.8357 70.2152 29.551C68.8512 31.2663 67.1876 32.124 65.2242 32.124C63.6122 32.124 62.3826 31.7107 61.5352 30.884C60.6879 30.0573 60.2642 28.838 60.2642 27.226ZM69.0062 18.112C68.0142 18.112 67.0739 19.1143 66.1852 21.119C65.3172 23.1237 64.8832 25.025 64.8832 26.823C64.8832 27.7943 64.9866 28.4557 65.1932 28.807C65.4206 29.1583 65.8442 29.334 66.4642 29.334C67.2289 29.334 67.9522 28.714 68.6342 27.474C69.3369 26.234 69.8122 24.7047 70.0602 22.886C69.7709 22.824 69.5539 22.6897 69.4092 22.483C69.2852 22.2557 69.2232 21.956 69.2232 21.584C69.2232 21.1913 69.3059 20.8503 69.4712 20.561C69.6366 20.2717 69.8742 20.0547 70.1842 19.91C70.1429 19.2487 70.0292 18.7837 69.8432 18.515C69.6779 18.2463 69.3989 18.112 69.0062 18.112ZM82.0057 28.683C82.0057 28.311 82.047 27.846 82.1297 27.288C82.233 26.73 82.4293 25.8413 82.7187 24.622C83.008 23.444 83.194 22.5967 83.2767 22.08C83.3593 21.5633 83.4007 21.1293 83.4007 20.778C83.4007 20.2613 83.3077 19.8687 83.1217 19.6C82.9357 19.3313 82.6567 19.197 82.2847 19.197C81.7887 19.197 81.3237 19.4553 80.8897 19.972C80.4763 20.468 80.1353 21.1603 79.8667 22.049L77.7587 32H73.2947L76.5807 16.5H81.0447L80.7037 18.112C81.2203 17.5333 81.7783 17.0993 82.3777 16.81C82.977 16.5207 83.628 16.376 84.3307 16.376C85.426 16.376 86.2733 16.6757 86.8727 17.275C87.472 17.8743 87.7717 18.7423 87.7717 19.879C87.7717 20.3543 87.7097 20.9227 87.5857 21.584C87.4823 22.2247 87.2653 23.2167 86.9347 24.56C86.666 25.614 86.4903 26.358 86.4077 26.792C86.325 27.226 86.2837 27.5877 86.2837 27.877C86.2837 28.311 86.387 28.6417 86.5937 28.869C86.8003 29.0757 87.1103 29.179 87.5237 29.179C88.0403 29.179 88.4847 29.0033 88.8567 28.652C89.2287 28.3007 89.6523 27.567 90.1277 26.451H91.4297C90.7683 28.373 89.9623 29.8093 89.0117 30.76C88.0817 31.7107 86.9657 32.186 85.6637 32.186C84.5063 32.186 83.6073 31.876 82.9667 31.256C82.326 30.6153 82.0057 29.7577 82.0057 28.683ZM97.657 28.683C97.657 28.311 97.6984 27.846 97.781 27.288C97.8844 26.73 98.0807 25.8413 98.37 24.622C98.6594 23.444 98.8454 22.5967 98.928 22.08C99.0107 21.5633 99.052 21.1293 99.052 20.778C99.052 20.2613 98.959 19.8687 98.773 19.6C98.587 19.3313 98.308 19.197 97.936 19.197C97.44 19.197 96.975 19.4553 96.541 19.972C96.1277 20.468 95.7867 21.1603 95.518 22.049L93.41 32H88.946L92.232 16.5H96.696L96.355 18.112C96.8717 17.5333 97.4297 17.0993 98.029 16.81C98.6284 16.5207 99.2794 16.376 99.982 16.376C101.077 16.376 101.925 16.6757 102.524 17.275C103.123 17.8743 103.423 18.7423 103.423 19.879C103.423 20.3543 103.361 20.9227 103.237 21.584C103.134 22.2247 102.917 23.2167 102.586 24.56C102.317 25.614 102.142 26.358 102.059 26.792C101.976 27.226 101.935 27.5877 101.935 27.877C101.935 28.311 102.038 28.6417 102.245 28.869C102.452 29.0757 102.762 29.179 103.175 29.179C103.692 29.179 104.136 29.0033 104.508 28.652C104.88 28.3007 105.304 27.567 105.779 26.451H107.081C106.42 28.373 105.614 29.8093 104.663 30.76C103.733 31.7107 102.617 32.186 101.315 32.186C100.158 32.186 99.2587 31.876 98.618 31.256C97.9774 30.6153 97.657 29.7577 97.657 28.683ZM117.425 19.197C117.425 20.9123 116.722 22.4107 115.317 23.692C113.912 24.9527 112.238 25.6347 110.295 25.738C110.274 26.0893 110.254 26.358 110.233 26.544C110.233 26.7093 110.233 26.854 110.233 26.978C110.233 27.9287 110.388 28.6003 110.698 28.993C111.029 29.3857 111.618 29.582 112.465 29.582C113.436 29.582 114.325 29.365 115.131 28.931C115.958 28.4763 116.898 27.6497 117.952 26.451H119.006C117.807 28.3937 116.505 29.8403 115.1 30.791C113.695 31.721 112.155 32.186 110.481 32.186C108.89 32.186 107.681 31.7727 106.854 30.946C106.048 30.1193 105.645 28.8897 105.645 27.257C105.645 26.079 105.831 24.8287 106.203 23.506C106.575 22.1833 107.071 21.0053 107.691 19.972C108.456 18.732 109.365 17.802 110.419 17.182C111.494 16.5413 112.692 16.221 114.015 16.221C115.152 16.221 115.999 16.469 116.557 16.965C117.136 17.4403 117.425 18.1843 117.425 19.197ZM114.263 17.864C113.56 17.864 112.847 18.4943 112.124 19.755C111.421 20.995 110.894 22.4933 110.543 24.25C111.742 24.1673 112.785 23.6197 113.674 22.607C114.583 21.5737 115.038 20.4163 115.038 19.135C115.038 18.701 114.976 18.3807 114.852 18.174C114.728 17.9673 114.532 17.864 114.263 17.864ZM129.867 19.073C129.867 19.7757 129.712 20.3337 129.402 20.747C129.113 21.1397 128.72 21.336 128.224 21.336C128.059 21.336 127.883 21.305 127.697 21.243C127.511 21.181 127.325 21.088 127.139 20.964C127.263 20.6333 127.356 20.313 127.418 20.003C127.48 19.693 127.511 19.4037 127.511 19.135C127.511 18.7217 127.439 18.4117 127.294 18.205C127.15 17.9777 126.933 17.864 126.643 17.864C125.734 17.864 124.845 18.918 123.977 21.026C123.109 23.1133 122.675 25.0973 122.675 26.978C122.675 27.9287 122.83 28.6003 123.14 28.993C123.471 29.3857 124.06 29.582 124.907 29.582C125.879 29.582 126.767 29.365 127.573 28.931C128.4 28.4763 129.34 27.6497 130.394 26.451H131.448C130.25 28.3937 128.948 29.8403 127.542 30.791C126.137 31.721 124.597 32.186 122.923 32.186C121.332 32.186 120.123 31.7727 119.296 30.946C118.49 30.1193 118.087 28.8897 118.087 27.257C118.087 26.079 118.263 24.8287 118.614 23.506C118.986 22.1833 119.493 21.0053 120.133 19.972C120.898 18.732 121.807 17.802 122.861 17.182C123.936 16.5413 125.124 16.221 126.426 16.221C127.563 16.221 128.421 16.469 128.999 16.965C129.578 17.4403 129.867 18.143 129.867 19.073ZM131.473 16.5H132.496L133.426 12.222L138.014 11.602L136.96 16.5H138.82L138.572 17.74H136.712L134.728 27.04C134.686 27.226 134.655 27.4017 134.635 27.567C134.614 27.7117 134.604 27.8667 134.604 28.032C134.604 28.4453 134.697 28.745 134.883 28.931C135.089 29.0963 135.42 29.179 135.875 29.179C136.453 29.179 137.001 28.931 137.518 28.435C138.034 27.9183 138.417 27.257 138.665 26.451H139.967C139.305 28.3317 138.417 29.7577 137.301 30.729C136.185 31.7003 134.903 32.186 133.457 32.186C132.423 32.186 131.607 31.8657 131.008 31.225C130.429 30.5637 130.14 29.644 130.14 28.466C130.14 28.1973 130.16 27.8977 130.202 27.567C130.243 27.2157 130.305 26.8437 130.388 26.451L132.248 17.74H131.225L131.473 16.5Z" fill="black"/>
</svg>
