<svg width="315" height="70" viewBox="0 0 315 70" fill="none" xmlns="http://www.w3.org/2000/svg">
<path d="M14.518 63H5.734L14.03 24.204L23.058 22.984L15.738 57.205C16.3073 57.6117 16.8767 57.9167 17.446 58.12C18.0153 58.3233 18.605 58.425 19.215 58.425C22.509 58.425 25.2743 55.7207 27.511 50.312C29.7883 44.8627 30.927 38.6203 30.927 31.585C30.927 27.7623 30.1747 24.8953 28.67 22.984C27.1653 21.032 24.949 20.056 22.021 20.056C17.263 20.056 13.3997 21.4183 10.431 24.143C7.503 26.827 6.039 30.4057 6.039 34.879C6.039 35.6517 6.07967 36.3227 6.161 36.892C6.283 37.4613 6.466 38.0103 6.71 38.539C6.79133 38.7017 6.832 38.8237 6.832 38.905C6.87267 38.9457 6.893 38.9863 6.893 39.027C4.697 39.027 3.05 38.5593 1.952 37.624C0.894667 36.6887 0.366 35.2653 0.366 33.354C0.366 31.1173 1.07767 28.9417 2.501 26.827C3.965 24.6717 5.95767 22.801 8.479 21.215C10.553 19.9543 12.8303 18.9783 15.311 18.287C17.8323 17.5957 20.4147 17.25 23.058 17.25C28.2633 17.25 32.269 18.8157 35.075 21.947C37.9217 25.0377 39.345 29.328 39.345 34.818C39.345 37.7867 38.9993 40.796 38.308 43.846C37.6167 46.896 36.6407 49.7427 35.38 52.386C33.7127 55.9647 31.7403 58.7707 29.463 60.804C27.1857 62.7967 24.8473 63.793 22.448 63.793C21.228 63.793 19.9877 63.5287 18.727 63C17.507 62.4307 16.2667 61.6173 15.006 60.56L14.518 63ZM62.8352 37.807C62.8352 41.1823 61.4526 44.1307 58.6872 46.652C55.9219 49.1327 52.6279 50.4747 48.8052 50.678C48.7646 51.3693 48.7239 51.898 48.6832 52.264C48.6832 52.5893 48.6832 52.874 48.6832 53.118C48.6832 54.9887 48.9882 56.3103 49.5982 57.083C50.2489 57.8557 51.4079 58.242 53.0752 58.242C54.9866 58.242 56.7352 57.815 58.3212 56.961C59.9479 56.0663 61.7982 54.4397 63.8722 52.081H65.9462C63.5876 55.9037 61.0256 58.7503 58.2602 60.621C55.4949 62.451 52.4652 63.366 49.1712 63.366C46.0399 63.366 43.6609 62.5527 42.0342 60.926C40.4482 59.2993 39.6552 56.8797 39.6552 53.667C39.6552 51.349 40.0212 48.8887 40.7532 46.286C41.4852 43.6833 42.4612 41.3653 43.6812 39.332C45.1859 36.892 46.9752 35.062 49.0492 33.842C51.1639 32.5813 53.5226 31.951 56.1252 31.951C58.3619 31.951 60.0292 32.439 61.1272 33.415C62.2659 34.3503 62.8352 35.8143 62.8352 37.807ZM56.6132 35.184C55.2306 35.184 53.8276 36.4243 52.4042 38.905C51.0216 41.345 49.9846 44.2933 49.2932 47.75C51.6519 47.5873 53.7056 46.5097 55.4542 44.517C57.2436 42.4837 58.1382 40.2063 58.1382 37.685C58.1382 36.831 58.0162 36.2007 57.7722 35.794C57.5282 35.3873 57.1419 35.184 56.6132 35.184ZM82.7694 37.685C82.1187 37.685 81.59 37.38 81.1834 36.77C80.7767 36.1193 80.5734 35.3873 80.5734 34.574C80.5734 33.5573 80.8987 32.7643 81.5494 32.195C82.2407 31.585 83.176 31.28 84.3554 31.28C85.616 31.28 86.5717 31.7477 87.2224 32.683C87.873 33.6183 88.1984 34.9197 88.1984 36.587C88.1984 39.3523 87.8324 42.26 87.1004 45.31C86.409 48.3193 85.4534 51.0643 84.2334 53.545C82.6067 56.7577 80.6547 59.1977 78.3774 60.865C76.1 62.5323 73.5787 63.366 70.8134 63.366C68.414 63.366 66.5637 62.756 65.2624 61.536C63.961 60.2753 63.3104 58.486 63.3104 56.168C63.3104 55.7207 63.351 55.253 63.4324 54.765C63.473 54.2363 63.534 53.728 63.6154 53.24L68.0074 32.5H76.7914L72.3994 53.24C72.318 53.6873 72.2367 54.1143 72.1554 54.521C72.1147 54.887 72.0944 55.192 72.0944 55.436C72.0944 56.0867 72.257 56.595 72.5824 56.961C72.9484 57.2863 73.477 57.449 74.1684 57.449C75.5917 57.449 76.9744 56.717 78.3164 55.253C79.699 53.7483 80.9394 51.6337 82.0374 48.909C82.8507 46.957 83.5014 44.9033 83.9894 42.748C84.4774 40.5927 84.7214 38.7017 84.7214 37.075C84.64 37.2377 84.3757 37.38 83.9284 37.502C83.5217 37.624 83.1354 37.685 82.7694 37.685ZM100.402 48.604C100.402 51.9793 100.992 54.4193 102.171 55.924C103.351 57.388 105.201 58.12 107.722 58.12C110.04 58.12 112.236 57.5913 114.31 56.534C116.425 55.436 118.194 53.9313 119.617 52.02L121.02 52.63C119.678 56.0867 117.34 58.852 114.005 60.926C110.711 62.9593 107.255 63.976 103.635 63.976C98.9179 63.976 95.5019 62.7967 93.3872 60.438C91.3132 58.0387 90.2762 54.216 90.2762 48.97C90.2762 45.5947 90.7032 42.077 91.5572 38.417C92.4112 34.757 93.5905 31.4833 95.0952 28.596C97.0472 24.8953 99.4059 22.0893 102.171 20.178C104.977 18.226 108.109 17.25 111.565 17.25C114.819 17.25 117.32 17.9617 119.068 19.385C120.858 20.7677 121.752 22.7807 121.752 25.424C121.752 27.254 121.386 28.657 120.654 29.633C119.922 30.5683 118.865 31.036 117.482 31.036C116.791 31.036 116.14 30.914 115.53 30.67C114.961 30.3853 114.453 29.9787 114.005 29.45C114.737 29.084 115.388 28.352 115.957 27.254C116.527 26.1153 116.811 24.9767 116.811 23.838C116.811 22.6587 116.486 21.7437 115.835 21.093C115.185 20.4423 114.27 20.117 113.09 20.117C111.301 20.117 109.532 21.215 107.783 23.411C106.035 25.5663 104.51 28.5553 103.208 32.378C102.314 34.9807 101.622 37.7053 101.134 40.552C100.646 43.358 100.402 46.042 100.402 48.604ZM118.584 53.606C118.584 51.288 118.95 48.8277 119.682 46.225C120.455 43.6223 121.492 41.3043 122.793 39.271C124.298 36.8717 126.108 35.062 128.222 33.842C130.337 32.5813 132.696 31.951 135.298 31.951C137.901 31.951 139.853 32.7643 141.154 34.391C142.456 36.0177 143.106 38.4577 143.106 41.711C143.188 41.7517 143.269 41.7923 143.35 41.833C143.472 41.833 143.615 41.833 143.777 41.833C145.038 41.833 146.543 41.4873 148.291 40.796C150.04 40.1047 151.667 39.2303 153.171 38.173L153.72 39.82C152.582 41.04 151.057 42.0973 149.145 42.992C147.275 43.8867 145.201 44.517 142.923 44.883C142.435 50.373 140.849 54.8057 138.165 58.181C135.481 61.5563 132.208 63.244 128.344 63.244C125.172 63.244 122.753 62.4307 121.085 60.804C119.418 59.1773 118.584 56.778 118.584 53.606ZM135.786 35.672C133.834 35.672 131.984 37.6443 130.235 41.589C128.527 45.5337 127.673 49.275 127.673 52.813C127.673 54.7243 127.877 56.0257 128.283 56.717C128.731 57.4083 129.564 57.754 130.784 57.754C132.289 57.754 133.712 56.534 135.054 54.094C136.437 51.654 137.372 48.6447 137.86 45.066C137.291 44.944 136.864 44.6797 136.579 44.273C136.335 43.8257 136.213 43.236 136.213 42.504C136.213 41.7313 136.376 41.0603 136.701 40.491C137.027 39.9217 137.494 39.4947 138.104 39.21C138.023 37.9087 137.799 36.9937 137.433 36.465C137.108 35.9363 136.559 35.672 135.786 35.672ZM161.366 56.473C161.366 55.741 161.447 54.826 161.61 53.728C161.813 52.63 162.2 50.8813 162.769 48.482C163.338 46.164 163.704 44.4967 163.867 43.48C164.03 42.4633 164.111 41.6093 164.111 40.918C164.111 39.9013 163.928 39.1287 163.562 38.6C163.196 38.0713 162.647 37.807 161.915 37.807C160.939 37.807 160.024 38.3153 159.17 39.332C158.357 40.308 157.686 41.6703 157.157 43.419L153.009 63H144.225L150.691 32.5H159.475L158.804 35.672C159.821 34.5333 160.919 33.6793 162.098 33.11C163.277 32.5407 164.558 32.256 165.941 32.256C168.096 32.256 169.764 32.8457 170.943 34.025C172.122 35.2043 172.712 36.9123 172.712 39.149C172.712 40.0843 172.59 41.2027 172.346 42.504C172.143 43.7647 171.716 45.7167 171.065 48.36C170.536 50.434 170.191 51.898 170.028 52.752C169.865 53.606 169.784 54.3177 169.784 54.887C169.784 55.741 169.987 56.3917 170.394 56.839C170.801 57.2457 171.411 57.449 172.224 57.449C173.241 57.449 174.115 57.1033 174.847 56.412C175.579 55.7207 176.413 54.277 177.348 52.081H179.91C178.609 55.863 177.023 58.6893 175.152 60.56C173.322 62.4307 171.126 63.366 168.564 63.366C166.287 63.366 164.518 62.756 163.257 61.536C161.996 60.2753 161.366 58.5877 161.366 56.473ZM192.164 56.473C192.164 55.741 192.245 54.826 192.408 53.728C192.611 52.63 192.997 50.8813 193.567 48.482C194.136 46.164 194.502 44.4967 194.665 43.48C194.827 42.4633 194.909 41.6093 194.909 40.918C194.909 39.9013 194.726 39.1287 194.36 38.6C193.994 38.0713 193.445 37.807 192.713 37.807C191.737 37.807 190.822 38.3153 189.968 39.332C189.154 40.308 188.483 41.6703 187.955 43.419L183.807 63H175.023L181.489 32.5H190.273L189.602 35.672C190.618 34.5333 191.716 33.6793 192.896 33.11C194.075 32.5407 195.356 32.256 196.739 32.256C198.894 32.256 200.561 32.8457 201.741 34.025C202.92 35.2043 203.51 36.9123 203.51 39.149C203.51 40.0843 203.388 41.2027 203.144 42.504C202.94 43.7647 202.513 45.7167 201.863 48.36C201.334 50.434 200.988 51.898 200.826 52.752C200.663 53.606 200.582 54.3177 200.582 54.887C200.582 55.741 200.785 56.3917 201.192 56.839C201.598 57.2457 202.208 57.449 203.022 57.449C204.038 57.449 204.913 57.1033 205.645 56.412C206.377 55.7207 207.21 54.277 208.146 52.081H210.708C209.406 55.863 207.82 58.6893 205.95 60.56C204.12 62.4307 201.924 63.366 199.362 63.366C197.084 63.366 195.315 62.756 194.055 61.536C192.794 60.2753 192.164 58.5877 192.164 56.473ZM231.062 37.807C231.062 41.1823 229.679 44.1307 226.914 46.652C224.148 49.1327 220.854 50.4747 217.032 50.678C216.991 51.3693 216.95 51.898 216.91 52.264C216.91 52.5893 216.91 52.874 216.91 53.118C216.91 54.9887 217.215 56.3103 217.825 57.083C218.475 57.8557 219.634 58.242 221.302 58.242C223.213 58.242 224.962 57.815 226.548 56.961C228.174 56.0663 230.025 54.4397 232.099 52.081H234.173C231.814 55.9037 229.252 58.7503 226.487 60.621C223.721 62.451 220.692 63.366 217.398 63.366C214.266 63.366 211.887 62.5527 210.261 60.926C208.675 59.2993 207.882 56.8797 207.882 53.667C207.882 51.349 208.248 48.8887 208.98 46.286C209.712 43.6833 210.688 41.3653 211.908 39.332C213.412 36.892 215.202 35.062 217.276 33.842C219.39 32.5813 221.749 31.951 224.352 31.951C226.588 31.951 228.256 32.439 229.354 33.415C230.492 34.3503 231.062 35.8143 231.062 37.807ZM224.84 35.184C223.457 35.184 222.054 36.4243 220.631 38.905C219.248 41.345 218.211 44.2933 217.52 47.75C219.878 47.5873 221.932 46.5097 223.681 44.517C225.47 42.4837 226.365 40.2063 226.365 37.685C226.365 36.831 226.243 36.2007 225.999 35.794C225.755 35.3873 225.368 35.184 224.84 35.184ZM255.545 37.563C255.545 38.9457 255.24 40.0437 254.63 40.857C254.061 41.6297 253.288 42.016 252.312 42.016C251.987 42.016 251.641 41.955 251.275 41.833C250.909 41.711 250.543 41.528 250.177 41.284C250.421 40.6333 250.604 40.003 250.726 39.393C250.848 38.783 250.909 38.2137 250.909 37.685C250.909 36.8717 250.767 36.2617 250.482 35.855C250.198 35.4077 249.771 35.184 249.201 35.184C247.412 35.184 245.663 37.258 243.955 41.406C242.247 45.5133 241.393 49.4173 241.393 53.118C241.393 54.9887 241.698 56.3103 242.308 57.083C242.959 57.8557 244.118 58.242 245.785 58.242C247.697 58.242 249.445 57.815 251.031 56.961C252.658 56.0663 254.508 54.4397 256.582 52.081H258.656C256.298 55.9037 253.736 58.7503 250.97 60.621C248.205 62.451 245.175 63.366 241.881 63.366C238.75 63.366 236.371 62.5527 234.744 60.926C233.158 59.2993 232.365 56.8797 232.365 53.667C232.365 51.349 232.711 48.8887 233.402 46.286C234.134 43.6833 235.131 41.3653 236.391 39.332C237.896 36.892 239.685 35.062 241.759 33.842C243.874 32.5813 246.212 31.951 248.774 31.951C251.011 31.951 252.699 32.439 253.837 33.415C254.976 34.3503 255.545 35.733 255.545 37.563ZM258.704 32.5H260.717L262.547 24.082L271.575 22.862L269.501 32.5H273.161L272.673 34.94H269.013L265.109 53.24C265.028 53.606 264.967 53.9517 264.926 54.277C264.886 54.5617 264.865 54.8667 264.865 55.192C264.865 56.0053 265.048 56.595 265.414 56.961C265.821 57.2863 266.472 57.449 267.366 57.449C268.505 57.449 269.583 56.961 270.599 55.985C271.616 54.9683 272.368 53.667 272.856 52.081H275.418C274.117 55.7817 272.368 58.5877 270.172 60.499C267.976 62.4103 265.455 63.366 262.608 63.366C260.575 63.366 258.969 62.7357 257.789 61.475C256.651 60.1737 256.081 58.364 256.081 56.046C256.081 55.5173 256.122 54.9277 256.203 54.277C256.285 53.5857 256.407 52.8537 256.569 52.081L260.229 34.94H258.216L258.704 32.5Z" fill="black"/>
</svg>
