<svg xmlns="http://www.w3.org/2000/svg" xmlns:xlink="http://www.w3.org/1999/xlink" width="500" zoomAndPan="magnify" viewBox="0 0 375 374.999991" height="500" preserveAspectRatio="xMidYMid meet" version="1.2"><defs><clipPath id="3584403887"><path d="M 60 47.082031 L 323.144531 47.082031 L 323.144531 234 L 60 234 Z M 60 47.082031 "/></clipPath><clipPath id="85769c5d8b"><path d="M 51.644531 141 L 315 141 L 315 327.582031 L 51.644531 327.582031 Z M 51.644531 141 "/></clipPath></defs><g id="4383f17478"><rect x="0" width="375" y="0" height="374.999991" style="fill:#ffffff;fill-opacity:1;stroke:none;"/><rect x="0" width="375" y="0" height="374.999991" style="fill:#000000;fill-opacity:1;stroke:none;"/><path style=" stroke:none;fill-rule:nonzero;fill:#00bf63;fill-opacity:1;" d="M 279.871094 161.90625 L 279.871094 141.507812 L 188.226562 88.625 L 96.582031 141.507812 L 96.582031 152.183594 L 114.570312 161.53125 L 151.046875 180.515625 C 151.710938 189.03125 158.855469 195.679688 167.496094 195.679688 C 170.53125 195.679688 173.394531 194.890625 175.847656 193.433594 C 176.179688 193.269531 176.46875 193.0625 176.761719 192.855469 C 180.582031 190.277344 183.28125 186.164062 183.90625 181.386719 C 184.03125 180.679688 184.074219 179.890625 184.074219 179.144531 C 184.074219 178.5625 184.03125 177.980469 183.988281 177.398438 C 183.449219 172.332031 180.625 167.929688 176.554688 165.3125 C 176.054688 164.9375 175.515625 164.644531 174.933594 164.355469 C 172.691406 163.191406 170.15625 162.570312 167.457031 162.570312 C 165.128906 162.570312 162.925781 163.066406 160.890625 163.980469 C 160.640625 164.066406 160.394531 164.148438 160.183594 164.3125 C 159.976562 164.4375 159.6875 164.5625 159.480469 164.730469 L 124.292969 146.367188 L 188.226562 109.394531 Z M 160.683594 178.855469 C 160.683594 177.898438 160.890625 177.027344 161.308594 176.195312 C 162.34375 173.867188 164.714844 172.207031 167.457031 172.207031 C 169.617188 172.207031 171.527344 173.203125 172.773438 174.78125 C 173.726562 175.902344 174.308594 177.359375 174.351562 178.855469 L 174.351562 179.0625 C 174.351562 180.515625 173.9375 181.84375 173.148438 182.964844 C 171.941406 184.710938 169.824219 185.875 167.496094 185.875 C 167.371094 185.875 167.164062 185.875 167.039062 185.832031 C 163.46875 185.625 160.640625 182.632812 160.640625 179.0625 C 160.640625 178.976562 160.640625 178.9375 160.683594 178.855469 Z M 160.683594 178.855469 "/><g clip-rule="nonzero" clip-path="url(#3584403887)"><path style=" stroke:none;fill-rule:nonzero;fill:#ffffff;fill-opacity:1;" d="M 315.804688 158.082031 L 315.804688 120.777344 L 188.226562 47.082031 L 60.609375 120.777344 L 60.609375 168.757812 L 78.59375 178.230469 L 114.570312 197.214844 L 183.367188 233.480469 L 183.367188 213.125 L 114.570312 176.859375 L 96.582031 167.386719 L 78.59375 157.917969 L 78.59375 131.203125 L 188.226562 67.851562 L 297.859375 131.164062 L 297.859375 157.957031 C 293.289062 160.90625 290.214844 166.058594 290.214844 171.957031 C 290.214844 181.097656 297.648438 188.492188 306.746094 188.492188 C 315.886719 188.492188 323.324219 181.054688 323.324219 171.957031 C 323.324219 166.140625 320.332031 161.03125 315.804688 158.082031 Z M 313.601562 171.957031 C 313.601562 173.410156 313.1875 174.742188 312.398438 175.863281 C 311.191406 177.609375 309.074219 178.769531 306.746094 178.769531 C 302.96875 178.769531 299.894531 175.65625 299.894531 171.917969 C 299.894531 171.832031 299.894531 171.792969 299.933594 171.707031 C 299.933594 170.753906 300.140625 169.878906 300.558594 169.050781 C 301.597656 166.722656 303.964844 165.0625 306.707031 165.0625 C 310.445312 165.0625 313.4375 168.011719 313.601562 171.707031 Z M 313.601562 171.957031 "/></g><path style=" stroke:none;fill-rule:nonzero;fill:#00bf63;fill-opacity:1;" d="M 95.089844 233.480469 L 186.730469 286.367188 L 278.375 233.480469 L 278.375 222.804688 L 260.386719 213.457031 L 223.910156 194.472656 C 223.246094 185.957031 216.101562 179.3125 207.460938 179.3125 C 204.429688 179.3125 201.5625 180.101562 199.109375 181.554688 C 198.777344 181.71875 198.488281 181.929688 198.195312 182.136719 C 194.375 184.710938 191.675781 188.824219 191.050781 193.601562 C 190.925781 194.308594 190.886719 195.097656 190.886719 195.84375 C 190.886719 196.425781 190.925781 197.007812 190.96875 197.589844 C 191.507812 202.65625 194.332031 207.0625 198.40625 209.679688 C 198.902344 210.050781 199.441406 210.34375 200.023438 210.632812 C 202.269531 211.796875 204.800781 212.421875 207.503906 212.421875 C 209.828125 212.421875 212.03125 211.921875 214.066406 211.007812 C 214.316406 210.925781 214.566406 210.839844 214.773438 210.675781 C 214.980469 210.550781 215.269531 210.425781 215.480469 210.261719 L 250.664062 228.621094 L 186.730469 265.59375 L 95.089844 213.085938 Z M 214.273438 196.136719 C 214.273438 197.089844 214.066406 197.964844 213.652344 198.792969 C 212.613281 201.121094 210.246094 202.78125 207.503906 202.78125 C 205.34375 202.78125 203.429688 201.785156 202.183594 200.207031 C 201.230469 199.085938 200.648438 197.632812 200.605469 196.136719 L 200.605469 195.929688 C 200.605469 194.472656 201.023438 193.144531 201.8125 192.023438 C 203.015625 190.277344 205.132812 189.113281 207.460938 189.113281 C 207.585938 189.113281 207.792969 189.113281 207.917969 189.15625 C 211.492188 189.363281 214.316406 192.355469 214.316406 195.929688 C 214.316406 196.011719 214.316406 196.050781 214.273438 196.136719 Z M 214.273438 196.136719 "/><g clip-rule="nonzero" clip-path="url(#85769c5d8b)"><path style=" stroke:none;fill-rule:nonzero;fill:#ffffff;fill-opacity:1;" d="M 186.730469 327.910156 L 314.351562 254.210938 L 314.351562 206.230469 L 296.363281 196.757812 L 260.386719 177.773438 L 191.589844 141.507812 L 191.589844 161.863281 L 260.386719 198.128906 L 296.363281 217.074219 L 296.363281 243.785156 L 186.730469 307.136719 L 77.140625 243.828125 L 77.140625 217.03125 C 81.710938 214.082031 84.785156 208.929688 84.785156 203.03125 C 84.785156 193.890625 77.347656 186.496094 68.25 186.496094 C 59.113281 186.496094 51.675781 193.933594 51.675781 203.03125 C 51.675781 208.847656 54.707031 213.957031 59.195312 216.863281 L 59.195312 254.171875 Z M 61.355469 203.03125 C 61.355469 201.578125 61.769531 200.25 62.558594 199.125 C 63.765625 197.382812 65.882812 196.21875 68.210938 196.21875 C 71.992188 196.21875 75.066406 199.335938 75.066406 203.074219 C 75.066406 203.15625 75.066406 203.199219 75.023438 203.28125 C 75.023438 204.234375 74.816406 205.109375 74.398438 205.941406 C 73.359375 208.265625 70.992188 209.925781 68.25 209.925781 C 64.511719 209.925781 61.523438 206.976562 61.355469 203.28125 Z M 61.355469 203.03125 "/></g><g style="fill:#000000;fill-opacity:1;"><g transform="translate(142.35937, 33.849995)"><path style="stroke:none" d="M 10.6875 -5.828125 C 10.6875 -3.941406 10.175781 -2.5 9.15625 -1.5 C 8.132812 -0.5 6.660156 0 4.734375 0 L 1.578125 0 L 1.578125 -11.421875 L 5.078125 -11.421875 C 6.847656 -11.421875 8.222656 -10.925781 9.203125 -9.9375 C 10.191406 -8.957031 10.6875 -7.585938 10.6875 -5.828125 Z M 9.28125 -5.78125 C 9.28125 -7.269531 8.90625 -8.390625 8.15625 -9.140625 C 7.414062 -9.898438 6.304688 -10.28125 4.828125 -10.28125 L 2.90625 -10.28125 L 2.90625 -1.15625 L 4.515625 -1.15625 C 6.097656 -1.15625 7.285156 -1.539062 8.078125 -2.3125 C 8.878906 -3.09375 9.28125 -4.25 9.28125 -5.78125 Z M 9.28125 -5.78125 "/></g></g><g style="fill:#000000;fill-opacity:1;"><g transform="translate(154.020589, 33.849995)"><path style="stroke:none" d="M 5 0.15625 C 3.726562 0.15625 2.726562 -0.226562 2 -1 C 1.269531 -1.769531 0.90625 -2.84375 0.90625 -4.21875 C 0.90625 -5.59375 1.242188 -6.6875 1.921875 -7.5 C 2.597656 -8.3125 3.507812 -8.71875 4.65625 -8.71875 C 5.726562 -8.71875 6.578125 -8.363281 7.203125 -7.65625 C 7.828125 -6.957031 8.140625 -6.03125 8.140625 -4.875 L 8.140625 -4.046875 L 2.25 -4.046875 C 2.269531 -3.046875 2.519531 -2.285156 3 -1.765625 C 3.488281 -1.242188 4.171875 -0.984375 5.046875 -0.984375 C 5.960938 -0.984375 6.875 -1.175781 7.78125 -1.5625 L 7.78125 -0.40625 C 7.320312 -0.207031 6.882812 -0.0664062 6.46875 0.015625 C 6.0625 0.109375 5.570312 0.15625 5 0.15625 Z M 4.640625 -7.640625 C 3.953125 -7.640625 3.40625 -7.414062 3 -6.96875 C 2.59375 -6.519531 2.351562 -5.898438 2.28125 -5.109375 L 6.75 -5.109375 C 6.75 -5.921875 6.566406 -6.546875 6.203125 -6.984375 C 5.835938 -7.421875 5.316406 -7.640625 4.640625 -7.640625 Z M 4.640625 -7.640625 "/></g></g><g style="fill:#000000;fill-opacity:1;"><g transform="translate(162.994965, 33.849995)"><path style="stroke:none" d="M 3.25 0 L 0 -8.5625 L 1.390625 -8.5625 L 3.234375 -3.484375 C 3.648438 -2.296875 3.894531 -1.523438 3.96875 -1.171875 L 4.03125 -1.171875 C 4.09375 -1.453125 4.273438 -2.023438 4.578125 -2.890625 C 4.878906 -3.753906 5.5625 -5.644531 6.625 -8.5625 L 8.015625 -8.5625 L 4.765625 0 Z M 3.25 0 "/></g></g><g style="fill:#000000;fill-opacity:1;"><g transform="translate(171.008633, 33.849995)"><path style="stroke:none" d="M 6.46875 -10.40625 C 5.207031 -10.40625 4.210938 -9.984375 3.484375 -9.140625 C 2.765625 -8.304688 2.40625 -7.164062 2.40625 -5.71875 C 2.40625 -4.21875 2.753906 -3.0625 3.453125 -2.25 C 4.148438 -1.4375 5.148438 -1.03125 6.453125 -1.03125 C 7.242188 -1.03125 8.148438 -1.171875 9.171875 -1.453125 L 9.171875 -0.296875 C 8.378906 0.00390625 7.40625 0.15625 6.25 0.15625 C 4.5625 0.15625 3.257812 -0.351562 2.34375 -1.375 C 1.4375 -2.394531 0.984375 -3.847656 0.984375 -5.734375 C 0.984375 -6.910156 1.203125 -7.941406 1.640625 -8.828125 C 2.078125 -9.710938 2.710938 -10.394531 3.546875 -10.875 C 4.378906 -11.351562 5.359375 -11.59375 6.484375 -11.59375 C 7.679688 -11.59375 8.726562 -11.375 9.625 -10.9375 L 9.0625 -9.796875 C 8.195312 -10.203125 7.332031 -10.40625 6.46875 -10.40625 Z M 6.46875 -10.40625 "/></g></g><g style="fill:#000000;fill-opacity:1;"><g transform="translate(181.099918, 33.849995)"><path style="stroke:none" d="M 8.765625 -4.296875 C 8.765625 -2.898438 8.410156 -1.804688 7.703125 -1.015625 C 7.003906 -0.234375 6.035156 0.15625 4.796875 0.15625 C 4.035156 0.15625 3.359375 -0.0195312 2.765625 -0.375 C 2.171875 -0.738281 1.710938 -1.253906 1.390625 -1.921875 C 1.066406 -2.597656 0.90625 -3.390625 0.90625 -4.296875 C 0.90625 -5.691406 1.253906 -6.773438 1.953125 -7.546875 C 2.648438 -8.328125 3.617188 -8.71875 4.859375 -8.71875 C 6.054688 -8.71875 7.003906 -8.316406 7.703125 -7.515625 C 8.410156 -6.722656 8.765625 -5.648438 8.765625 -4.296875 Z M 2.25 -4.296875 C 2.25 -3.203125 2.46875 -2.367188 2.90625 -1.796875 C 3.34375 -1.222656 3.984375 -0.9375 4.828125 -0.9375 C 5.679688 -0.9375 6.328125 -1.21875 6.765625 -1.78125 C 7.203125 -2.351562 7.421875 -3.191406 7.421875 -4.296875 C 7.421875 -5.378906 7.203125 -6.203125 6.765625 -6.765625 C 6.328125 -7.335938 5.675781 -7.625 4.8125 -7.625 C 3.96875 -7.625 3.328125 -7.34375 2.890625 -6.78125 C 2.460938 -6.226562 2.25 -5.398438 2.25 -4.296875 Z M 2.25 -4.296875 "/></g></g><g style="fill:#000000;fill-opacity:1;"><g transform="translate(190.761626, 33.849995)"><path style="stroke:none" d="M 7.234375 0 L 7.234375 -5.546875 C 7.234375 -6.242188 7.070312 -6.765625 6.75 -7.109375 C 6.4375 -7.453125 5.941406 -7.625 5.265625 -7.625 C 4.367188 -7.625 3.710938 -7.378906 3.296875 -6.890625 C 2.878906 -6.410156 2.671875 -5.613281 2.671875 -4.5 L 2.671875 0 L 1.375 0 L 1.375 -8.5625 L 2.4375 -8.5625 L 2.640625 -7.390625 L 2.703125 -7.390625 C 2.972656 -7.816406 3.347656 -8.144531 3.828125 -8.375 C 4.304688 -8.601562 4.835938 -8.71875 5.421875 -8.71875 C 6.453125 -8.71875 7.226562 -8.46875 7.75 -7.96875 C 8.269531 -7.476562 8.53125 -6.6875 8.53125 -5.59375 L 8.53125 0 Z M 7.234375 0 "/></g></g><g style="fill:#000000;fill-opacity:1;"><g transform="translate(200.579546, 33.849995)"><path style="stroke:none" d="M 7.234375 0 L 7.234375 -5.546875 C 7.234375 -6.242188 7.070312 -6.765625 6.75 -7.109375 C 6.4375 -7.453125 5.941406 -7.625 5.265625 -7.625 C 4.367188 -7.625 3.710938 -7.378906 3.296875 -6.890625 C 2.878906 -6.410156 2.671875 -5.613281 2.671875 -4.5 L 2.671875 0 L 1.375 0 L 1.375 -8.5625 L 2.4375 -8.5625 L 2.640625 -7.390625 L 2.703125 -7.390625 C 2.972656 -7.816406 3.347656 -8.144531 3.828125 -8.375 C 4.304688 -8.601562 4.835938 -8.71875 5.421875 -8.71875 C 6.453125 -8.71875 7.226562 -8.46875 7.75 -7.96875 C 8.269531 -7.476562 8.53125 -6.6875 8.53125 -5.59375 L 8.53125 0 Z M 7.234375 0 "/></g></g><g style="fill:#000000;fill-opacity:1;"><g transform="translate(210.397466, 33.849995)"><path style="stroke:none" d="M 5 0.15625 C 3.726562 0.15625 2.726562 -0.226562 2 -1 C 1.269531 -1.769531 0.90625 -2.84375 0.90625 -4.21875 C 0.90625 -5.59375 1.242188 -6.6875 1.921875 -7.5 C 2.597656 -8.3125 3.507812 -8.71875 4.65625 -8.71875 C 5.726562 -8.71875 6.578125 -8.363281 7.203125 -7.65625 C 7.828125 -6.957031 8.140625 -6.03125 8.140625 -4.875 L 8.140625 -4.046875 L 2.25 -4.046875 C 2.269531 -3.046875 2.519531 -2.285156 3 -1.765625 C 3.488281 -1.242188 4.171875 -0.984375 5.046875 -0.984375 C 5.960938 -0.984375 6.875 -1.175781 7.78125 -1.5625 L 7.78125 -0.40625 C 7.320312 -0.207031 6.882812 -0.0664062 6.46875 0.015625 C 6.0625 0.109375 5.570312 0.15625 5 0.15625 Z M 4.640625 -7.640625 C 3.953125 -7.640625 3.40625 -7.414062 3 -6.96875 C 2.59375 -6.519531 2.351562 -5.898438 2.28125 -5.109375 L 6.75 -5.109375 C 6.75 -5.921875 6.566406 -6.546875 6.203125 -6.984375 C 5.835938 -7.421875 5.316406 -7.640625 4.640625 -7.640625 Z M 4.640625 -7.640625 "/></g></g><g style="fill:#000000;fill-opacity:1;"><g transform="translate(219.371842, 33.849995)"><path style="stroke:none" d="M 4.796875 0.15625 C 3.554688 0.15625 2.597656 -0.222656 1.921875 -0.984375 C 1.242188 -1.753906 0.90625 -2.835938 0.90625 -4.234375 C 0.90625 -5.660156 1.25 -6.765625 1.9375 -7.546875 C 2.625 -8.328125 3.609375 -8.71875 4.890625 -8.71875 C 5.296875 -8.71875 5.703125 -8.671875 6.109375 -8.578125 C 6.523438 -8.492188 6.851562 -8.394531 7.09375 -8.28125 L 6.6875 -7.171875 C 6.40625 -7.285156 6.09375 -7.378906 5.75 -7.453125 C 5.414062 -7.535156 5.117188 -7.578125 4.859375 -7.578125 C 3.117188 -7.578125 2.25 -6.46875 2.25 -4.25 C 2.25 -3.195312 2.457031 -2.390625 2.875 -1.828125 C 3.300781 -1.265625 3.929688 -0.984375 4.765625 -0.984375 C 5.484375 -0.984375 6.21875 -1.132812 6.96875 -1.4375 L 6.96875 -0.296875 C 6.394531 0.00390625 5.671875 0.15625 4.796875 0.15625 Z M 4.796875 0.15625 "/></g></g><g style="fill:#000000;fill-opacity:1;"><g transform="translate(226.987175, 33.849995)"><path style="stroke:none" d="M 4.140625 -0.921875 C 4.367188 -0.921875 4.585938 -0.9375 4.796875 -0.96875 C 5.015625 -1 5.1875 -1.035156 5.3125 -1.078125 L 5.3125 -0.078125 C 5.175781 -0.00390625 4.96875 0.0507812 4.6875 0.09375 C 4.414062 0.132812 4.171875 0.15625 3.953125 0.15625 C 2.296875 0.15625 1.46875 -0.71875 1.46875 -2.46875 L 1.46875 -7.5625 L 0.25 -7.5625 L 0.25 -8.1875 L 1.46875 -8.71875 L 2.015625 -10.546875 L 2.765625 -10.546875 L 2.765625 -8.5625 L 5.25 -8.5625 L 5.25 -7.5625 L 2.765625 -7.5625 L 2.765625 -2.515625 C 2.765625 -2.003906 2.882812 -1.609375 3.125 -1.328125 C 3.375 -1.054688 3.710938 -0.921875 4.140625 -0.921875 Z M 4.140625 -0.921875 "/></g></g></g></svg>